PathFileType	4	(X/Y/Z)	60_2_46_p0_0-392.trc
DataRate	CameraRate	NumFrames	NumMarkers	Units	OrigDataRate	OrigDataStartFrame	OrigNumFrames
59.0	59.0	5	27	m	59.0	0	393
Frame#	Time	RHip			RKnee			RAnkle			RBigToe			RSmallToe			RHeel			LHip			LKnee			LAnkle			LBigToe			LSmallToe			LHeel			Neck			Head			Nose			RShoulder			RElbow			RWrist			RThumb			RIndex			RPinky			LShoulder			LElbow			LWrist			LThumb			LIndex			LPinky			
		X1	Y1	Z1	X2	Y2	Z2	X3	Y3	Z3	X4	Y4	Z4	X5	Y5	Z5	X6	Y6	Z6	X7	Y7	Z7	X8	Y8	Z8	X9	Y9	Z9	X10	Y10	Z10	X11	Y11	Z11	X12	Y12	Z12	X13	Y13	Z13	X14	Y14	Z14	X15	Y15	Z15	X16	Y16	Z16	X17	Y17	Z17	X18	Y18	Z18	X19	Y19	Z19	X20	Y20	Z20	X21	Y21	Z21	X22	Y22	Z22	X23	Y23	Z23	X24	Y24	Z24	X25	Y25	Z25	X26	Y26	Z26	X27	Y27	Z27	
0	0.0	0.3473837040841665	0.48055481164338454	-0.22335920725743516	0.35292291214800686	0.6662201702405918	0.2342242899863482	0.3509295431638192	0.8227566912013395	0.5921314244717383	0.2917974602928839	0.6690200903788522	0.6820963822043721	0.3701160336932288	0.6729718764477729	0.6759594626832715	0.3260652261308862	0.9429664939397322	0.6434999293438985	0.135321232614653	0.49152349058937966	-0.23226866067002297	0.14241682770259856	0.685971195229189	0.20655271417098858	0.15506235948317507	0.8577480480002354	0.5802769107760198	0.1278493154857439	0.602754783000286	0.661881420056854	0.07470087032642532	0.6781050661934437	0.6564949977417799	0.1682352690350898	0.9217920815491077	0.6119920134344455	0.26932862706209265	0.2897351415403589	-0.732987521270872	0.26945809101455037	0.18097604942204337	-0.9346508797623094	0.26473644353728537	0.18311533834449276	-0.8041458078158827	0.4351286793496614	0.3483667491674682	-0.6679277678928974	0.5163998823749668	0.39676690305559015	-0.42107910230316203	0.38262828878707494	0.2193597037280228	-0.21809446687498005	0.2727031750437771	0.22114718927869742	-0.13001373694969262	0.2764668928892555	0.21317179333995465	-0.11143386964810881	0.3081364927725029	0.20196006688599255	-0.10745080160437512	0.09606823943166481	0.3452233827337382	-0.6814230598892443	0.012926776262464147	0.4105676691174026	-0.4386236014347077	0.1188854645318789	0.30550015110976114	-0.20770373892009508	0.2098947247834755	0.30127641129417665	-0.14716111309419816	0.20574376895581542	0.31136292627566087	-0.11378869565560837	0.18503234889738326	0.3293253818737397	-0.1014503100524679
1	0.01694915254237288	0.3506239206956105	0.4635953493165989	-0.2265269581246278	0.35279251186019467	0.6671211020350722	0.2345607886121166	0.3499642988682799	0.8238230100174401	0.6007642752491784	0.29169686119746735	0.6686766251710774	0.682081849767754	0.36991139761426756	0.672388615292335	0.676098994135542	0.3263564534689493	0.9430243302871364	0.6472272392175215	0.1400022474561544	0.492104717883208	-0.22770368402832422	0.14230866557649724	0.6862366847263353	0.2066946800411726	0.1538389118946765	0.8603726511842618	0.5852811279073391	0.12455619826595003	0.5873601326477683	0.6542549848747437	0.07475529506042622	0.6769687184569612	0.6559836167272607	0.1677402479874683	0.927475003975742	0.6236378277505475	0.26543189478295276	0.30271945431678654	-0.7359992008746106	0.2695047151850794	0.1810314115728648	-0.9347066706899899	0.26471218956035947	0.18307766882163196	-0.8041159066317587	0.43478682849849376	0.34670992612019846	-0.6711778677660745	0.5163873879243319	0.39790822883374916	-0.4132277368741424	0.3784043784290869	0.2052816037655335	-0.2275140093774662	0.2651710240364658	0.2268741203812436	-0.148851113882956	0.26943174035649675	0.22293675324728585	-0.12247051280775349	0.28587643680012165	0.22654320271366793	-0.11269567030490078	0.09612041569915786	0.3452093364448489	-0.6815217265219321	0.01227437100978807	0.40982347055520174	-0.43890340395255667	0.1185733016219643	0.30348771967457727	-0.2112271759022081	0.2094500019704615	0.29624447666919806	-0.16000340123517617	0.21456727689089486	0.3001138945272418	-0.11645920482430933	0.18904353081094796	0.32583758599877694	-0.11253251626243746
2	0.03389830508474576	0.35459727007433123	0.4515181107690576	-0.21816017486766437	0.3527941473048619	0.6671327257151103	0.23460584570368587	0.35001073316136594	0.8239375531312925	0.6007751307441833	0.2927577075419234	0.6678131913302537	0.6773509001602208	0.36550417028584214	0.6700725464387787	0.675257422362578	0.32681217622519576	0.9434662865893593	0.6471308837245102	0.1432572153181263	0.5120437460533064	-0.21699321347697492	0.1426679919379781	0.7009762037796459	0.2118456840009039	0.15383326474124406	0.8606437607453192	0.5852120230102417	0.12458136122431131	0.5873283040612106	0.6540444386895125	0.07492854426392694	0.6769689396697779	0.6556819743527964	0.1676777048730569	0.9279066323466972	0.6239313943895387	0.2654624909715251	0.302815331548034	-0.7361026948112964	0.26949762171537117	0.1809924008997095	-0.9378951899750203	0.26487336578646725	0.18448931808186894	-0.8011752803443233	0.43521147504875335	0.34793540295121184	-0.6713041956164708	0.512234883089647	0.38552442636122036	-0.4117314273364311	0.37070681937417255	0.21646383668178384	-0.22833919100244257	0.2518012627852652	0.21667009813290375	-0.1637246689270616	0.24585551887825047	0.21917411738543607	-0.12940099244388778	0.27700161827773945	0.21269405241420808	-0.11510477255940113	0.0961090294185758	0.3453497504201899	-0.6814477531574011	0.0049154653939028105	0.410195147685965	-0.43893283770987884	0.11862641758623314	0.303219512264351	-0.21155631740155603	0.2128585374543911	0.2795172095829252	-0.1776668761446669	0.21485175166308598	0.2969170176117584	-0.12456422342222657	0.19661855520809185	0.326046935314952	-0.11430037685595233
3	0.05084745762711865	0.3552699842494245	0.4545450536022814	-0.20953693777549476	0.3484533560591121	0.6649560398253783	0.23421658562263156	0.3498463112491352	0.8236543800495432	0.6010129985369039	0.29260193296375125	0.6677475447987525	0.6776082365253382	0.3654319091728596	0.6702115804346306	0.6755464631126464	0.3267171447621289	0.9431036954124555	0.6472148479538532	0.1437025958442736	0.5140252379101197	-0.20782648296442133	0.1470619294532208	0.7034586028001866	0.21192752330837022	0.15391817584583914	0.8605898957571295	0.5850109627067132	0.12485926613319492	0.5876831738496916	0.658273884820548	0.07494007647988127	0.6774012535560361	0.6558654222832495	0.16678924884505417	0.9248725167248986	0.6187463724804317	0.2614110274752521	0.30153011089481685	-0.7357348811088869	0.2694754680439227	0.18091057500646987	-0.9379473114585185	0.2648314957382921	0.18451963412849154	-0.8012127922841117	0.4321505452060628	0.3613106970773957	-0.6741960053428616	0.5125333101908581	0.3852068134784862	-0.41529040256155264	0.36717111264327046	0.20476286845442382	-0.23092241641231456	0.23461667369964695	0.24861028794995202	-0.19272294389530875	0.22803795407569452	0.2522472842916201	-0.14127262485705022	0.2771296335075979	0.21194944708555374	-0.11926760902037054	0.09607042477092365	0.3454959374803885	-0.6814413520616578	0.007547410083882569	0.4249219410224269	-0.4369274304453243	0.12136831032284422	0.3144138486264752	-0.21588052935310537	0.21278094876494427	0.2747180169294411	-0.19904895893629493	0.21954510589203433	0.29563978763534227	-0.1319881364528923	0.20552972007719106	0.31311972612542005	-0.11465095779583119
4	0.06779661016949153	0.3518543319771913	0.4734573019939767	-0.19800332110789914	0.34363457977583295	0.683352887575629	0.24046023762271654	0.34990377293268016	0.8236780181527997	0.6011290133220476	0.2915488825895192	0.6686401654964034	0.6822871131944311	0.3655804329964921	0.6701685633564288	0.6800071648717856	0.3269933974773372	0.9423428510127702	0.647367238307201	0.14275698339261553	0.5151872507807166	-0.20376724792325543	0.14625073764467647	0.7046221127459656	0.21629204132899427	0.15406823786141793	0.8607271048267322	0.584982184400229	0.12452558131646477	0.587744270192815	0.6546168159393294	0.0748453401150222	0.6774251029402193	0.6560172528033663	0.16791577557980605	0.9278439296595106	0.6235399924398037	0.26139454730731376	0.301532057101961	-0.7358237417908791	0.26930691667339807	0.1795959689835486	-0.941147000723543	0.26464119366063693	0.1832088505296326	-0.8041817171977294	0.4321550325050275	0.3613325004046173	-0.6741508296386309	0.5126245459042603	0.3856878840109476	-0.4152726378050375	0.3549286822144454	0.2282343732194055	-0.23222563266286506	0.218779396404152	0.2628443363716707	-0.19395829276242252	0.21530901416321233	0.27724855036722784	-0.14267776493940762	0.26474815545145186	0.23688030932809714	-0.11676655562450913	0.09603976035328154	0.3454856272326943	-0.6814608463060745	0.007470813179873199	0.42414885203210234	-0.4407235515963437	0.12089285974028602	0.31153711143391055	-0.22324965512201944	0.2131945034235839	0.2732280799711334	-0.202849966792102	0.21935026055909926	0.27851737153646355	-0.1426353303964005	0.20555362236413113	0.3117004377291255	-0.1149801969571795
